<svg xmlns="http://www.w3.org/2000/svg" width="1024" height="1024" viewBox="0 0 1024 1024">
<g>
<path d="M 276.73 761.05 C267.61,762.85 247.58,763.60 241.50,762.36 C226.65,759.35 217.14,755.11 211.69,749.08 L 208.00 744.99 L 208.00 729.70 C208.00,714.54 210.07,685.05 211.94,673.50 C212.48,670.20 213.19,665.25 213.53,662.50 C214.77,652.40 221.20,625.66 225.08,614.38 C229.17,602.52 233.29,593.54 237.68,586.91 L 240.14 583.18 L 237.12 579.01 C229.84,568.96 233.40,553.03 244.27,547.00 C246.60,545.71 248.83,544.17 249.23,543.57 C249.64,542.98 249.97,537.78 249.98,532.00 C249.99,518.46 251.91,467.48 252.57,463.29 C253.06,460.19 254.05,459.59 279.29,446.92 C370.03,401.38 442.67,364.58 443.72,363.61 C444.67,362.74 444.63,361.63 443.51,358.50 C436.99,340.18 451.75,323.51 481.71,315.35 C489.99,313.09 494.12,312.61 508.50,312.23 C519.37,311.94 528.03,312.22 532.50,312.99 C556.51,317.16 575.65,328.02 581.01,340.53 C589.92,361.31 567.42,381.77 529.35,387.50 C507.29,390.83 485.08,387.82 466.11,378.93 C461.50,376.77 457.34,375.00 456.88,375.00 C456.42,375.00 451.19,377.40 445.27,380.32 C425.98,389.86 411.54,397.08 409.50,398.22 C408.40,398.83 389.73,408.31 368.00,419.27 C282.74,462.31 268.78,469.57 267.83,471.34 C266.90,473.05 265.84,491.60 264.58,527.78 L 264.58 528.00 C264.20,538.78 264.07,542.53 265.84,544.80 C266.79,546.03 268.29,546.82 270.59,548.07 C272.22,548.94 274.82,552.02 276.49,555.07 C278.98,559.59 279.47,561.59 279.42,567.00 C279.36,573.26 278.36,576.24 274.52,581.53 C273.19,583.37 273.32,583.95 275.99,587.99 C279.86,593.82 287.24,611.34 290.34,622.00 C296.08,641.75 302.05,680.10 303.96,709.50 C304.39,716.10 305.08,725.79 305.50,731.03 C306.19,739.66 306.06,740.96 304.13,744.74 C299.79,753.25 291.61,758.12 276.73,761.05 Z" fill="rgb(5,89,216)"/>
<path d="M 276.73 761.05 C282.02,760.01 286.46,758.73 290.18,757.12 C286.92,758.75 283.81,760.00 282.56,760.00 C281.34,760.00 280.98,760.50 281.40,761.61 C281.88,762.86 281.62,763.05 280.26,762.45 C279.29,762.02 277.60,761.73 276.50,761.81 C274.62,761.94 271.74,762.06 268.42,762.17 C271.60,761.87 274.50,761.49 276.73,761.05 ZM 992.73 511.69 C992.92,512.27 992.49,512.98 991.76,513.26 C990.94,513.58 990.43,513.04 990.43,511.87 C990.43,509.92 992.10,509.79 992.73,511.69 ZM 225.06 757.69 C218.89,755.33 214.95,752.68 211.69,749.08 C214.77,752.49 219.15,755.33 225.06,757.69 ZM 297.32 752.99 C299.02,751.67 300.48,750.20 301.73,748.57 C300.87,749.74 299.98,750.80 299.25,751.49 C298.77,751.94 298.11,752.45 297.32,752.99 ZM 242.23 762.49 C241.87,762.47 241.62,762.45 241.50,762.42 C240.72,762.24 239.95,762.06 239.21,761.88 C239.96,762.04 240.72,762.20 241.50,762.36 C241.72,762.41 241.97,762.45 242.23,762.49 Z" fill="rgb(226,143,97)"/>
<path d="M 267.56 472.28 C267.65,471.81 267.74,471.50 267.83,471.34 C268.78,469.57 282.74,462.31 368.00,419.27 C389.73,408.31 408.40,398.83 409.50,398.22 C411.54,397.08 425.98,389.86 445.27,380.32 C451.19,377.40 456.42,375.00 456.88,375.00 C457.34,375.00 461.50,376.77 466.11,378.93 C485.08,387.82 507.29,390.83 529.35,387.50 C567.42,381.77 589.92,361.31 581.01,340.53 C575.65,328.02 556.51,317.16 532.50,312.99 C528.03,312.22 519.37,311.94 508.50,312.23 C494.12,312.61 489.99,313.09 481.71,315.35 C451.75,323.51 436.99,340.18 443.51,358.50 C444.63,361.63 444.67,362.74 443.72,363.61 C442.67,364.58 370.03,401.38 279.29,446.92 C254.05,459.59 253.06,460.19 252.57,463.29 C252.33,464.79 251.94,472.30 251.52,481.94 C251.83,472.18 252.01,464.76 251.88,464.66 C251.67,464.52 238.23,458.40 222.00,451.05 C205.77,443.70 183.95,433.79 173.50,429.02 C163.05,424.25 126.94,407.83 93.25,392.53 C59.56,377.23 32.00,364.39 32.00,364.01 C32.00,363.62 39.76,359.79 49.25,355.49 C69.85,346.16 254.74,262.15 287.50,247.23 C300.15,241.47 317.25,233.72 325.50,230.00 C333.75,226.28 378.67,205.86 425.33,184.62 C471.98,163.38 511.24,146.00 512.57,146.00 C513.90,146.00 520.27,148.44 526.74,151.43 C540.79,157.92 671.43,217.32 716.00,237.49 C733.33,245.33 779.90,266.47 819.50,284.47 C859.10,302.47 914.35,327.58 942.28,340.28 C983.31,358.92 992.82,363.60 991.78,364.62 C990.83,365.55 551.76,565.79 517.93,580.71 L 512.36 583.17 L 473.93 565.69 C452.79,556.08 405.12,534.40 368.00,517.53 C330.88,500.65 293.16,483.45 284.20,479.30 C275.90,475.47 268.80,472.48 267.56,472.28 ZM 293.41 634.21 C292.40,629.65 291.37,625.53 290.34,622.00 C287.24,611.34 279.86,593.82 275.99,587.99 C273.32,583.95 273.19,583.37 274.52,581.53 C278.36,576.24 279.36,573.26 279.42,567.00 C279.47,561.59 278.98,559.59 276.49,555.07 C274.82,552.02 272.22,548.94 270.59,548.07 C268.29,546.82 266.79,546.03 265.84,544.80 C264.07,542.53 264.20,538.78 264.58,528.00 L 264.58 527.78 C264.93,517.75 265.26,509.07 265.58,501.74 C265.28,509.04 265.01,516.77 264.82,523.75 L 264.50 536.01 L 289.50 547.38 C303.25,553.63 331.38,566.41 352.00,575.77 C372.62,585.13 416.80,605.21 450.16,620.39 C483.53,635.58 511.61,648.00 512.56,648.00 C513.52,648.00 522.00,644.45 531.40,640.11 C540.81,635.77 565.60,624.48 586.50,615.01 C607.40,605.54 631.70,594.50 640.50,590.48 C649.30,586.46 671.58,576.33 690.00,567.96 C708.42,559.59 725.75,551.72 728.50,550.47 C863.86,488.91 901.62,472.00 903.72,472.00 C905.12,472.00 925.00,480.48 947.89,490.85 C970.77,501.22 990.29,509.98 991.25,510.32 C991.27,510.33 991.29,510.34 991.30,510.34 C990.82,510.40 990.43,510.92 990.43,511.87 C990.43,512.45 990.55,512.87 990.78,513.11 C980.07,518.55 931.25,540.99 856.00,575.05 C849.12,578.17 769.15,614.53 678.28,655.86 C587.41,697.19 512.83,731.00 512.54,731.00 C512.25,731.00 462.93,708.69 402.93,681.42 C342.93,654.15 293.61,632.05 293.34,632.32 C293.24,632.43 293.27,633.11 293.41,634.21 ZM 752.61 758.46 C621.23,818.16 513.01,866.98 512.12,866.94 C511.23,866.91 490.02,857.55 465.00,846.14 C412.00,821.97 296.98,769.83 281.06,762.74 C281.71,762.90 281.77,762.56 281.40,761.61 C280.98,760.50 281.34,760.00 282.56,760.00 C283.81,760.00 286.92,758.75 290.18,757.12 C292.94,755.93 295.30,754.56 297.32,752.99 C298.11,752.45 298.77,751.94 299.25,751.49 C299.98,750.80 300.87,749.74 301.73,748.57 C302.64,747.38 303.44,746.11 304.13,744.74 C306.06,740.96 306.19,739.66 305.50,731.03 C305.08,725.79 304.39,716.10 303.96,709.50 C303.65,704.76 303.24,699.78 302.74,694.69 C303.47,698.25 304.42,700.00 305.61,700.00 C306.80,700.00 387.00,735.99 436.00,758.51 C442.33,761.41 462.07,770.41 479.87,778.50 L 512.24 793.21 L 515.87 791.71 C517.87,790.89 537.28,782.13 559.00,772.24 C580.72,762.36 643.28,733.93 698.00,709.06 C752.72,684.18 802.45,661.56 808.50,658.78 C814.55,656.00 823.78,651.82 829.00,649.49 C834.22,647.15 854.90,637.76 874.94,628.62 C894.98,619.48 911.99,612.00 912.75,612.00 C913.50,612.00 926.58,617.67 941.81,624.60 C957.04,631.53 971.30,638.02 973.50,639.01 C991.09,646.97 993.28,648.12 992.42,648.98 C991.90,649.50 883.99,698.76 752.61,758.46 ZM 250.40 512.52 C250.15,520.82 249.98,528.02 249.98,532.00 C249.97,537.78 249.64,542.98 249.23,543.57 C248.83,544.17 246.60,545.71 244.27,547.00 C233.40,553.03 229.84,568.96 237.12,579.01 L 240.14 583.18 L 237.68 586.91 C233.30,593.53 229.19,602.48 225.11,614.30 C227.30,607.95 228.96,602.62 228.79,602.46 C228.63,602.29 184.40,582.11 130.50,557.61 C76.61,533.10 32.40,512.69 32.24,512.23 C31.85,511.05 118.32,472.00 121.34,472.00 C122.73,472.00 152.08,484.83 186.57,500.52 C221.07,516.21 249.40,528.92 249.54,528.77 C249.68,528.62 250.02,521.73 250.40,512.52 ZM 215.28 652.49 C214.46,656.52 213.84,660.01 213.53,662.50 C213.19,665.25 212.48,670.20 211.94,673.50 C210.07,685.05 208.00,714.54 208.00,729.70 L 208.00 736.50 C208.00,730.15 207.67,728.00 206.69,728.00 C205.96,728.00 167.15,710.63 120.44,689.40 C73.72,668.17 34.43,650.38 33.11,649.87 C31.80,649.36 30.90,648.77 31.11,648.56 C32.13,647.56 111.09,612.00 112.29,612.00 C113.52,612.00 202.67,652.17 210.69,656.33 C211.05,656.52 211.36,656.70 211.65,656.87 C212.33,657.27 212.81,657.55 213.22,657.47 C213.93,657.33 214.42,656.10 215.28,652.49 ZM 271.76 762.05 C271.59,762.08 271.43,762.11 271.27,762.14 C268.04,762.74 262.80,762.96 257.10,762.88 C260.89,762.75 264.84,762.51 268.42,762.17 C269.60,762.13 270.72,762.09 271.76,762.05 ZM 236.22 761.18 C234.57,760.90 233.13,760.58 231.99,760.24 C227.93,759.02 224.38,757.64 221.31,756.09 C222.47,756.64 223.71,757.17 225.06,757.69 C228.31,758.99 232.02,760.15 236.22,761.18 ZM 217.99 640.17 C219.59,632.87 222.46,622.35 224.61,615.79 C222.56,622.06 219.95,631.90 217.75,641.26 C217.83,640.90 217.91,640.54 217.99,640.17 ZM 300.86 678.20 C300.29,673.75 299.67,669.29 299.01,664.92 C299.75,669.66 300.39,674.24 300.86,678.20 ZM 992.73 511.69 C992.62,511.37 992.49,511.11 992.33,510.90 C992.74,511.21 993.00,511.56 993.00,511.85 C993.00,511.88 992.92,511.94 992.77,512.04 C992.78,511.92 992.77,511.80 992.73,511.69 Z" fill="rgb(236,85,2)"/>
<path d="M 0.00 512.00 L 0.00 0.00 L 512.00 0.00 L 1024.00 0.00 L 1024.00 512.00 L 1024.00 1024.00 L 512.00 1024.00 L 0.00 1024.00 L 0.00 512.00 ZM 752.61 758.46 C883.99,698.76 991.90,649.50 992.42,648.98 C993.28,648.12 991.09,646.97 973.50,639.01 C971.30,638.02 957.04,631.53 941.81,624.60 C926.58,617.67 913.50,612.00 912.75,612.00 C911.99,612.00 894.98,619.48 874.94,628.62 C854.90,637.76 834.22,647.15 829.00,649.49 C823.78,651.82 814.55,656.00 808.50,658.78 C802.45,661.56 752.72,684.18 698.00,709.06 C643.28,733.93 580.72,762.36 559.00,772.24 C537.28,782.13 517.87,790.89 515.87,791.71 L 512.24 793.21 L 479.87 778.50 C462.07,770.41 442.33,761.41 436.00,758.51 C387.00,735.99 306.80,700.00 305.61,700.00 C303.62,700.00 302.30,695.11 301.54,685.00 C300.81,675.18 297.77,655.65 294.86,642.16 C293.76,637.02 293.07,632.59 293.34,632.32 C293.61,632.05 342.93,654.15 402.93,681.42 C462.93,708.69 512.25,731.00 512.54,731.00 C512.83,731.00 587.41,697.19 678.28,655.86 C769.15,614.53 849.12,578.17 856.00,575.05 C941.60,536.31 993.00,512.59 993.00,511.85 C993.00,511.35 992.21,510.66 991.25,510.32 C990.29,509.98 970.77,501.22 947.89,490.85 C925.00,480.48 905.12,472.00 903.72,472.00 C901.62,472.00 863.86,488.91 728.50,550.47 C725.75,551.72 708.42,559.59 690.00,567.96 C671.58,576.33 649.30,586.46 640.50,590.48 C631.70,594.50 607.40,605.54 586.50,615.01 C565.60,624.48 540.81,635.77 531.40,640.11 C522.00,644.45 513.52,648.00 512.56,648.00 C511.61,648.00 483.53,635.58 450.16,620.39 C416.80,605.21 372.62,585.13 352.00,575.77 C331.38,566.41 303.25,553.63 289.50,547.38 L 264.50 536.01 L 264.82 523.75 C265.40,501.94 266.84,472.82 267.38,472.29 C267.66,472.00 275.23,475.16 284.20,479.30 C293.16,483.45 330.88,500.65 368.00,517.53 C405.12,534.40 452.79,556.08 473.93,565.69 L 512.36 583.17 L 517.93 580.71 C551.76,565.79 990.83,365.55 991.78,364.62 C992.82,363.60 983.31,358.92 942.28,340.28 C914.35,327.58 859.10,302.47 819.50,284.47 C779.90,266.47 733.33,245.33 716.00,237.49 C671.43,217.32 540.79,157.92 526.74,151.43 C520.27,148.44 513.90,146.00 512.57,146.00 C511.24,146.00 471.98,163.38 425.33,184.62 C378.67,205.86 333.75,226.28 325.50,230.00 C317.25,233.72 300.15,241.47 287.50,247.23 C254.74,262.15 69.85,346.16 49.25,355.49 C39.76,359.79 32.00,363.62 32.00,364.01 C32.00,364.39 59.56,377.23 93.25,392.53 C126.94,407.83 163.05,424.25 173.50,429.02 C183.95,433.79 205.77,443.70 222.00,451.05 C238.23,458.40 251.67,464.52 251.88,464.66 C252.27,464.93 249.96,528.31 249.54,528.77 C249.40,528.92 221.07,516.21 186.57,500.52 C152.08,484.83 122.73,472.00 121.34,472.00 C118.32,472.00 31.85,511.05 32.24,512.23 C32.40,512.69 76.61,533.10 130.50,557.61 C184.40,582.11 228.63,602.29 228.79,602.46 C228.96,602.62 227.30,607.95 225.11,614.30 C222.92,620.65 219.72,632.29 217.99,640.17 C213.60,660.18 214.45,658.29 210.69,656.33 C202.67,652.17 113.52,612.00 112.29,612.00 C111.09,612.00 32.13,647.56 31.11,648.56 C30.90,648.77 31.80,649.36 33.11,649.87 C34.43,650.38 73.72,668.17 120.44,689.40 C167.15,710.63 205.96,728.00 206.69,728.00 C207.67,728.00 208.00,730.15 208.00,736.50 C208.00,744.89 208.05,745.05 211.69,749.07 C215.89,753.73 222.58,757.40 231.99,760.24 C239.98,762.64 262.69,763.74 271.27,762.14 C274.80,761.48 277.90,761.41 279.27,761.96 C282.29,763.17 408.68,820.45 465.00,846.14 C490.02,857.55 511.23,866.91 512.12,866.94 C513.01,866.98 621.23,818.16 752.61,758.46 Z" fill="rgb(254,254,254)"/>
</g>
</svg>